<?xml version="1.0" encoding="UTF-8"?>
<svg id="Capa_2" data-name="Capa 2" xmlns="http://www.w3.org/2000/svg" viewBox="0 0 18.51 9.85">
  <defs>
    <style>
      .cls-1 {
        fill: #fff;
      }
    </style>
  </defs>
  <g id="Capa_1-2" data-name="Capa 1">
    <g>
      <path class="cls-1" d="m17.81,9.85H.89c-.49,0-.89-.4-.89-.89v-2.38l.37-.37.32-.07c.65-.02,1.17-.55,1.17-1.2s-.51-1.18-1.17-1.2h-.23s-.4-.36-.4-.36l-.06-.35v-1.99C0,.32.46,0,.89,0h17.56l.05.7v2.45l-.53.55-.24.02c-.62.06-1.09.57-1.09,1.2s.47,1.14,1.09,1.2l.24.02.53.55v3.11l-.7.05ZM1.3,8.54h15.91v-1.2c-1.08-.29-1.85-1.26-1.85-2.42s.77-2.13,1.85-2.42v-1.2H1.3v1.2c1.07.28,1.85,1.26,1.85,2.42s-.78,2.14-1.85,2.42v1.2Z"/>
      <g>
        <path class="cls-1" d="m13.84,1.02c-.1,0-.2-.04-.26-.11-.07-.07-.11-.16-.11-.26s.04-.2.11-.27c.13-.13.39-.14.52,0,.08.07.12.17.12.27s-.04.19-.12.26c-.06.07-.16.11-.26.11Z"/>
        <path class="cls-1" d="m13.84,7.43c-.21,0-.38-.17-.38-.38s.17-.38.38-.38.38.16.38.37h0c0,.22-.17.39-.38.39Zm0-2.14c-.21,0-.38-.17-.38-.38s.17-.38.38-.38.38.16.38.37h0c0,.22-.17.39-.38.39Zm0-2.14c-.21,0-.38-.17-.38-.38s.17-.38.38-.38.38.16.38.37h0c0,.22-.17.39-.38.39Z"/>
        <path class="cls-1" d="m13.84,9.57c-.1,0-.19-.04-.26-.11-.07-.07-.11-.17-.11-.27s.04-.19.11-.26c.1-.11.27-.14.4-.08.05,0,.09.04.12.08.08.07.12.16.12.26s-.04.2-.12.27c-.03.03-.07.06-.12.08-.04.02-.09.03-.14.03Z"/>
      </g>
      <path class="cls-1" d="m6.07,5.16c-.29,0-.55-.07-.78-.2s-.41-.32-.54-.56c-.13-.24-.2-.5-.2-.8s.06-.58.19-.82c.13-.24.31-.42.54-.56.23-.13.49-.2.79-.2s.56.07.79.2c.23.13.4.32.53.56.13.24.19.51.19.82s-.07.57-.2.8c-.13.24-.31.42-.54.56-.23.14-.48.2-.77.2Zm0-.97c.07,0,.12-.02.17-.07.04-.05.08-.12.1-.21.02-.09.04-.19.04-.31s-.01-.23-.04-.32c-.02-.09-.06-.16-.1-.21-.04-.05-.1-.07-.17-.07s-.13.02-.17.07c-.05.05-.08.12-.11.21-.03.09-.04.2-.04.32s.01.23.04.31c.02.09.06.16.11.21.05.05.11.07.18.07Zm-.24,3.56l3.64-5.51h1.44l-3.68,5.51h-1.4Zm4.97.08c-.29,0-.55-.07-.78-.2s-.41-.32-.54-.56c-.13-.24-.2-.5-.2-.8s.06-.58.19-.82c.13-.24.31-.42.54-.55.23-.13.49-.2.79-.2s.56.07.79.2c.23.13.4.32.53.55.13.24.19.51.19.82s-.07.57-.2.8c-.13.24-.31.42-.54.56-.23.14-.48.2-.77.2Zm0-.97c.07,0,.12-.02.17-.07s.08-.12.1-.21c.02-.09.04-.19.04-.31s-.01-.23-.04-.32c-.02-.09-.06-.16-.1-.21-.04-.05-.1-.07-.17-.07s-.13.02-.17.07c-.05.05-.08.12-.11.21s-.04.2-.04.32.01.23.04.31c.02.09.06.16.11.21.05.05.11.07.18.07Z"/>
    </g>
  </g>
</svg>